<svg width="440" height="11" viewBox="0 0 440 11" fill="none" xmlns="http://www.w3.org/2000/svg">
    <path d="M2 2.93879C9.41706 2.93879 16.5811 2 24.0361 2C31.7486 2 39.3164 3.87758 46.9029 3.87758C71.4161 3.87758 96.0246 2.93879 120.444 2.93879C129.882 2.93879 141.041 1.0976 149.957 5.23362C151.787 6.08272 153.746 5.54324 155.641 5.96379C157.853 6.45468 159.781 7.83694 161.937 8.36292C167.262 9.6624 173.676 8.57154 179.076 8.57154C202.354 8.57154 225.105 2.93879 248.332 2.93879C268.124 2.93879 287.916 2.93879 307.707 2.93879C316.678 2.93879 325.7 3.87758 334.553 3.87758C342.126 3.87758 349.367 5.75517 356.939 5.75517C365.712 5.75517 374.486 5.75517 383.26 5.75517C385.757 5.75517 389.059 4.77002 391.567 4.0862C395.639 2.97595 400.081 4.74994 404.159 3.66896C415.029 0.787512 427.064 3.87758 438 3.87758" stroke="#FEFF89" stroke-width="4" stroke-linecap="round"/>
</svg>
